<?xml version="1.0" encoding="UTF-8" standalone="no"?><!DOCTYPE svg PUBLIC "-//W3C//DTD SVG 1.1//EN" "http://www.w3.org/Graphics/SVG/1.1/DTD/svg11.dtd"><svg width="100%" height="100%" viewBox="0 0 1625 1625" version="1.1" xmlns="http://www.w3.org/2000/svg" xmlns:xlink="http://www.w3.org/1999/xlink" xml:space="preserve" xmlns:serif="http://www.serif.com/" style="fill-rule:evenodd;clip-rule:evenodd;stroke-linejoin:round;stroke-miterlimit:2;"><rect id="logo" x="0" y="0" width="1625" height="1625" style="fill:none;"/><g id="logo1" serif:id="logo"><g><path d="M556.299,736.854l158.295,-145.158c4.275,-3.933 10.934,-3.642 14.863,0.646c3.925,4.279 3.633,10.933 -0.646,14.862l-156.521,143.529c21.363,15.675 47.713,24.946 76.238,24.946c71.271,0 129.046,-57.775 129.046,-129.046c-0,-41.733 -19.83,-78.816 -50.559,-102.404l-187.287,171.754c4.804,7.525 10.354,14.517 16.571,20.871Z" style="fill-rule:nonzero;"/><path d="M591.303,530.967c7.108,12.237 2.546,30.22 -11.409,42.145c-13.154,11.238 -30.312,13.401 -41.437,6.146c-10.967,17.875 -17.704,38.617 -18.808,60.846l133.475,-122.4c-1.525,-0.054 -3.055,-0.116 -4.596,-0.116c-20.558,-0 -39.979,4.829 -57.225,13.379Z" style="fill-rule:nonzero;"/><path d="M523.665,679.325l168.213,-154.25c-7.042,-2.512 -14.371,-4.421 -21.917,-5.683l-150.029,137.579c0.608,7.658 1.85,15.133 3.733,22.354Z" style="fill-rule:nonzero;"/><path d="M474.986,62.312c-34.421,5.217 -68.279,15.021 -100.325,28.971c-32.054,13.925 -62.321,31.967 -89.65,53.525c-27.258,21.613 -51.787,46.638 -71.287,75.109c27.104,-21.288 54.254,-41.263 82.7,-58.95c28.366,-17.746 57.82,-33.313 88.295,-46.534c30.48,-13.216 61.95,-24.104 94.284,-32.679c32.346,-8.675 65.479,-14.821 99.546,-20.129c-34.113,-5.221 -69.146,-4.454 -103.563,0.687Z" style="fill-rule:nonzero;"/><path d="M424.765,120.333c-20.541,5.242 -40.5,12.759 -59.525,22.075c-19.025,9.321 -37.154,20.417 -54.05,33.1c-16.812,12.767 -32.604,26.946 -45.946,43.313c17.95,-11.075 35.392,-22.083 53.242,-32.325c17.788,-10.308 35.8,-20.004 54.146,-28.971c18.354,-8.954 37.025,-17.2 56.137,-24.575c19.1,-7.467 38.642,-13.842 58.8,-20.033c-21.112,-0.804 -42.262,2.275 -62.804,7.416Z" style="fill-rule:nonzero;"/><path d="M1486.68,1245.83l-27.963,-130.204l-53.691,61.204c-4.88,-3.079 -9.813,-5.975 -14.784,-8.679l59.654,-68.004l-153.025,-98.579l165.709,84.117l5.637,2.866l2.717,13.146l33.912,163.9c-5.404,-6.129 -11.516,-12.817 -18.166,-19.767Zm-782.767,144.217c7.013,-42.079 29.454,-87.667 29.454,-87.667c-25.946,22.446 -53.3,81.359 -62.416,98.188c-9.117,16.833 -95.384,112.916 -95.384,112.916c70.838,-145.174 124.842,-211.104 124.842,-211.104c98.883,-99.587 230.737,-162.008 230.737,-162.008c-140.97,103.8 -156.399,145.879 -156.399,145.879c149.387,-131.15 264.404,-165.512 264.404,-165.512c-134.655,86.962 -168.321,136.758 -168.321,136.758c202.687,-134.658 275.625,-139.567 275.625,-139.567c-8.884,4.475 -17.188,8.809 -24.971,13.009c-44.933,18.937 -130.258,74.933 -235.062,164.862c-82.055,24.546 -182.509,94.246 -182.509,94.246Zm-73.933,-129.258c-1.429,0.541 -1.638,0.604 -2.525,1.071c-0.742,0.37 -1.534,0.854 -2.342,1.399c-3.287,2.163 -6.287,5.596 -9.671,8.73c-3.446,3.104 -7.396,6.041 -11.162,9.254c-3.859,3.137 -7.779,6.342 -11.946,9.371c-4.171,2.941 -8.617,6.033 -13.613,7.562c3.338,-3.871 5.575,-8.246 8.075,-12.55c2.359,-4.154 4.734,-8.337 7.234,-12.508c-5.042,-0.721 -9.767,-1.542 -14.363,-2.304c-5.129,-0.763 -10.15,-1.409 -15.058,-1.08c-4.942,0.242 -9.696,1.005 -15.342,2.842c2.479,-5.437 7.971,-9.208 13.638,-11.083c5.733,-1.838 11.646,-2.604 17.333,-2.879c5.688,-0.371 11.238,-0.092 16.313,-0.304c2.5,-0.142 4.945,-0.255 6.908,-0.605c0.979,-0.108 1.729,-0.337 2.346,-0.579c2.933,-2.779 6.279,-5.317 9.987,-7.867c1.25,-0.829 2.571,-1.633 4.042,-2.366c1.292,-0.709 3.404,-1.517 4.287,-1.842c2.267,-0.854 4.513,-1.708 6.784,-2.471c4.508,-1.575 9.108,-2.825 13.625,-4.246c4.5,-1.454 8.958,-2.97 13.221,-4.929c4.262,-1.979 8.379,-4.254 11.795,-8.171c-0.412,5.284 -3.55,10.263 -7.029,14.317c-3.579,4.079 -7.712,7.546 -12.021,10.563c-4.304,3.046 -8.787,5.733 -13.454,7.829c-2.329,1.067 -4.7,1.979 -7.062,2.846Zm-182.938,-67.742c-0.312,-0.871 -0.7,-1.875 -1.162,-3.071c-1.096,-2.821 -2.638,-6.783 -4.504,-12.654c2.791,-3.242 4.433,-6.996 5.316,-10.75c5.454,0.617 11.792,0.975 19.188,0.975c20.504,-0 49.087,-2.729 89.046,-10.092c80.029,-14.754 182.883,-43.983 289.616,-82.287c106.738,-38.321 204.692,-81.179 275.838,-120.696c48.975,-27.2 75.596,-47.425 89.837,-62.363c3.213,2.325 7.034,3.892 11.275,4.576c1.434,4.037 2.742,7.75 3.788,10.716l1.971,5.575c2.504,6.954 -14.413,32.088 -96.288,77.454c-24.233,13.43 -51.687,27.263 -81.512,41.18c27.891,-14.059 55.287,-29.121 82.216,-44.984c6.909,-4.158 13.729,-8.479 20.563,-12.762c6.7,-4.513 13.487,-8.875 20.041,-13.609c13.192,-9.312 25.888,-19.4 37.713,-30.383c-27.608,16.696 -55.383,32.35 -83.588,47.504c-28.054,15.375 -56.779,29.504 -85.654,43.296c-4.558,2.154 -9.133,4.263 -13.712,6.387c5.108,-2.466 10.217,-4.924 15.3,-7.441c28.875,-14.296 57.216,-29.654 85.141,-45.75l20.675,-12.542c6.734,-4.458 13.576,-8.7 20.175,-13.362c13.301,-9.13 26.134,-19.034 38.117,-29.825c-27.846,16.25 -55.817,31.533 -84.146,46.433c-28.191,15.096 -56.996,29.054 -85.925,42.7c-51.033,23.763 -102.779,46.088 -155.45,65.842c7.825,0.05 14.25,3.233 15.988,8.77c2.433,7.746 -5.184,17.034 -17.009,20.751c-11.825,3.708 -23.387,0.445 -25.816,-7.301c-1.5,-4.774 0.841,-10.137 5.621,-14.416c-0.121,0.041 -0.246,0.087 -0.367,0.129c-60.25,21.621 -121.133,41.633 -182.642,59.046c-30.754,8.704 -61.675,16.754 -92.766,23.771c-18.905,4.287 -39.184,7.758 -59.275,10.304c0.02,-0.038 0.07,-0.129 0.07,-0.129c0,-0 -4.475,0.646 -11.266,1.445c-9.134,1.001 -18.175,1.826 -26.959,2.409l0.017,0.058c-9.896,0.6 -19.867,0.779 -27.371,-0.058c0,-0 3.513,16.091 11.613,23.129c-15.817,-1.254 -22.567,-4.787 -23.713,-7.975Zm-18.854,-50.967c-0.871,-2.425 -1.879,-5.004 -2.946,-7.708c-0.646,-1.65 -1.291,-3.362 -1.937,-5.058c17.721,-1.755 38.487,-4.692 62.883,-9.1c91.367,-16.525 208.679,-49.671 330.321,-93.342c121.642,-43.663 233.254,-92.692 314.275,-138.046c30.683,-17.179 53.85,-32.008 71.283,-44.883c1.542,4.012 2.884,7.929 4.096,11.537c0.775,2.309 1.513,4.5 2.242,6.534c2.516,7.008 -14.35,32.287 -96.196,77.745c-27.475,15.259 -59.058,31.03 -93.608,46.855c1.587,-0.784 3.179,-1.538 4.762,-2.329c28.883,-14.338 57.217,-29.784 85.071,-46.055c6.925,-4.137 13.767,-8.433 20.612,-12.691c6.717,-4.488 13.521,-8.825 20.088,-13.538c13.225,-9.267 25.958,-19.308 37.825,-30.246c-27.667,16.592 -55.5,32.15 -83.758,47.205c-28.109,15.27 -56.888,29.3 -85.805,42.991c-4.566,2.129 -9.15,4.225 -13.729,6.334c5.113,-2.446 10.229,-4.892 15.317,-7.384c28.925,-14.192 57.317,-29.454 85.3,-45.446l20.721,-12.47c6.75,-4.43 13.612,-8.65 20.225,-13.288c13.329,-9.083 26.2,-18.938 38.221,-29.688c-27.9,16.146 -55.929,31.334 -84.313,46.13c-28.242,15 -57.096,28.85 -86.067,42.395c-51.125,23.58 -102.945,45.717 -155.691,65.288c7.821,0.075 14.233,3.288 15.954,8.825c2.408,7.754 -5.242,17.017 -17.079,20.687c-11.838,3.675 -23.384,0.367 -25.792,-7.391c-1.483,-4.779 0.879,-10.129 5.675,-14.4c-0.129,0.046 -0.246,0.092 -0.367,0.137c-60.333,21.4 -121.287,41.196 -182.854,58.396c-30.787,8.592 -95.758,27.504 -187.462,41.179l0.004,0.013c-8.021,1.033 -16.117,2.058 -22.096,2.792c0,-0 1.692,9.208 6.988,15.983c-14.7,-1.409 -21.046,-4.854 -22.163,-7.963Zm713.121,-696.783c2.329,12.958 -2.479,24.667 -10.733,26.154c-8.263,1.484 -16.842,-7.825 -19.171,-20.783c-2.329,-12.963 2.479,-24.675 10.733,-26.159c8.263,-1.483 16.842,7.821 19.171,20.788Zm-21.138,-64.45c-4.887,0.879 -9.683,-3.05 -10.712,-8.775c-1.029,-5.721 2.1,-11.075 6.987,-11.95c4.892,-0.879 9.684,3.05 10.713,8.771c1.033,5.725 -2.096,11.079 -6.988,11.954Zm-776.27,716.733c-7.442,-20.733 -7.446,-20.733 -8.6,-24.154c-0.884,-2.604 -2.43,-7.183 -8.338,-24.104c50.296,-5.004 137.313,-25.821 232.683,-81.258l2.3,-1.338l1.563,-2.15c2.637,-3.629 61.683,-85.25 93.237,-162.321c28.888,18.654 63.246,29.529 100.117,29.529c7.063,0 14.025,-0.437 20.884,-1.212c-3.367,1.212 -6.751,2.387 -10.184,3.479c-8.237,2.554 -16.737,4.421 -25.417,5.825c-8.683,1.508 -17.52,2.734 -26.662,4.529c11.908,4.379 24.421,5.971 37.092,6.117c-7.734,2.8 -15.575,5.317 -23.571,7.433c-9.534,2.617 -19.171,4.95 -29.184,7.492c10.05,2.508 20.442,3.05 30.73,2.638c2.091,-0.105 4.187,-0.263 6.279,-0.43c-6.954,2.8 -13.954,5.488 -21.046,7.95c-10.4,3.696 -20.817,7.254 -31.625,10.884c11.35,1.391 22.825,0.612 34.05,-0.925c0.937,-0.138 1.862,-0.342 2.8,-0.488c-6.154,2.704 -12.338,5.354 -18.554,7.933l-33.958,14.521c12.545,-0.062 24.924,-2.137 37.049,-4.754c9.159,-2.066 18.234,-4.45 27.288,-6.929c-33.421,15.933 -67.504,30.621 -101.517,46.046c24.209,-5.442 47.863,-12.838 71.321,-20.817c23.396,-8.146 46.525,-17.116 69.463,-26.642c18.075,-7.491 35.933,-15.533 53.595,-24.058c157.305,-67.979 267.205,-137.346 320.234,-185.346c3.083,-11.958 6.308,-25.025 9.358,-39.07c-8.6,10.291 -18.858,15.958 -29.304,14.895c-23.908,-2.429 -39.758,-39.187 -35.392,-82.1c4.363,-42.912 27.288,-75.725 51.2,-73.295c11.629,1.183 21.321,10.529 27.738,24.712c1.546,-92.758 -22.463,-204.346 -116.709,-319.688c-1.395,-1.758 -2.854,-3.458 -4.279,-5.191c-1.362,-1.634 -2.754,-3.271 -4.15,-4.904c-2.554,-3.005 -5.1,-6.021 -7.741,-8.938c-1.959,-2.217 -3.909,-4.433 -5.913,-6.65c0,0 0.021,0.167 0.054,0.429c-6.891,-7.279 -13.95,-14.366 -21.358,-21.037c-20.329,-18.367 -42.575,-34.321 -66.083,-47.671c-23.479,-13.408 -48.1,-24.429 -73.375,-33.125c-25.271,-8.717 -51.309,-14.879 -77.521,-18.525c25.692,6.404 50.633,15.204 74.379,26.333c23.75,11.104 46.387,24.304 67.408,39.471c21.05,15.109 40.363,32.384 57.392,51.425c12.796,14.259 24.317,29.488 34.533,45.446c-9.012,-12.012 -18.887,-23.229 -29.479,-33.546c-14.837,-14.446 -30.992,-27.233 -48.042,-38.362c-17.058,-11.117 -35.024,-20.621 -53.616,-28.171c34.291,20.821 64.15,47.946 87.458,79.062c12.917,17.238 23.504,35.85 31.546,55.184c-0.2,-0.375 -0.379,-0.763 -0.579,-1.134c-11.55,-21.796 -26.413,-41.575 -43.842,-58.316c-17.317,-16.834 -37.604,-30.363 -59.329,-39.555c20.133,12.334 37.558,28.276 51.525,46.609c14.054,18.25 24.942,38.55 32.412,59.787c7.488,21.25 11.584,43.375 12.792,65.521c0.842,21.633 -1.154,43.159 -4.779,64.329c-14.2,34.734 -34.683,68.9 -64.075,98.292c-0,-0 -72.188,-20.304 -125.654,-27.213c-17.571,-5.55 -36.258,-8.558 -55.642,-8.558c-48.708,0 -93.05,18.934 -126.146,49.792c-78.375,-79.158 -240.05,-208.642 -318.896,-271.788c-12.558,-10.058 -23.05,-18.462 -30.983,-24.879c98.433,-120.537 243.075,-189.354 399.229,-189.354c284.238,-0 515.488,231.246 515.488,515.483c-0,43.504 -6.571,93.629 -17.275,135.359c7.191,16.687 15.346,31.104 21.517,43.862c9.408,19.434 17.529,36.217 26.395,60.921c1.213,3.375 -4.145,15.017 -29.904,35.558c3.434,-9.775 7.758,-27.337 1.192,-41.454c-10.521,-22.621 -32.088,-71.012 -32.088,-71.012c0,-0 -44.245,42.654 -158.737,104.937c-32.688,17.775 -74.809,40.417 -123.2,63.213l0.062,0.104c-19.262,9.15 -39.146,18.491 -49.546,23.546c-19.645,9.516 -39.395,18.808 -59.604,27.233c21.454,-4.404 42.771,-9.783 64,-15.396c10.588,-2.821 21.138,-5.704 31.679,-8.662c-9.237,4.687 -18.52,9.321 -27.854,13.85c-19.75,9.575 -39.654,18.846 -60.016,27.245c21.595,-4.374 43.062,-9.729 64.42,-15.416c10.613,-2.825 21.196,-5.767 31.775,-8.796c-9.258,4.754 -18.579,9.429 -27.958,13.987c-19.85,9.65 -39.916,18.884 -60.425,27.267c21.729,-4.358 43.346,-9.671 64.834,-15.437c10.616,-2.85 21.208,-5.821 31.783,-8.921c-9.25,4.817 -18.575,9.533 -27.979,14.112c-19.938,9.721 -40.167,18.913 -60.83,27.292c21.871,-4.346 43.634,-9.608 65.259,-15.471c10.654,-2.883 21.279,-5.908 31.887,-9.1c-9.271,4.904 -18.641,9.675 -28.1,14.3c-20.025,9.804 -40.425,18.946 -61.233,27.313c22.004,-4.329 43.925,-9.538 65.679,-15.496c10.888,-2.975 21.734,-6.125 32.558,-9.484c2.151,-0.67 4.292,-1.349 6.438,-2.037c-32.917,13.283 -67.158,26.35 -102.308,38.967c-42.58,15.283 -84.563,29.229 -125.075,41.629c5.383,-2.471 10.775,-4.917 16.146,-7.417c18.483,-8.629 36.891,-17.433 55.012,-26.7c-19.638,5.342 -39.367,10.146 -59.133,14.767c-4.346,1.012 -8.709,1.975 -13.063,2.971c4.121,-2.021 8.254,-4.013 12.367,-6.055c18.646,-9.275 37.208,-18.737 55.421,-28.737c-19.85,6.125 -39.834,11.621 -59.863,16.925c-4.3,1.129 -8.617,2.217 -12.925,3.325c4.183,-2.167 8.379,-4.312 12.554,-6.504c18.813,-9.921 37.534,-20.05 55.825,-30.8c-20.05,6.925 -40.279,13.121 -60.571,19.1c-4.245,1.246 -8.508,2.437 -12.762,3.666c4.233,-2.32 8.479,-4.595 12.704,-6.941c18.983,-10.567 37.863,-21.358 56.221,-32.879c-20.229,7.754 -40.704,14.641 -61.254,21.304c-4.184,1.346 -8.388,2.641 -12.584,3.967c4.271,-2.455 8.559,-4.867 12.817,-7.351c19.158,-11.208 38.209,-22.662 56.613,-34.97c-20.392,8.595 -41.109,16.179 -61.917,23.516c-18.608,6.53 -88.679,32.938 -118.2,43.192c-22.383,7.429 -44.221,14.221 -65.046,20.262l18.513,60.513c-9.592,1.975 -19,3.825 -28.084,5.471c-3.187,0.571 -6.3,1.116 -9.35,1.641l-17.591,-57.516c-19.584,5.133 -37.83,9.433 -54.259,12.783l15.979,52.238c-4.562,0.404 -8.862,0.725 -12.912,0.958l-15.529,-50.771c-8.529,1.567 -16.479,2.846 -23.742,3.792c4.008,14.604 11.242,36.792 14.775,47.466c-24.929,-0.675 -34.092,-5.391 -35.162,-8.379Zm-179.488,-288.221c-79.317,-173.766 -60.158,-375.054 49.163,-530.529c4.429,3.492 9.591,7.563 15.366,12.129c-24,35.692 -43.696,74.005 -58.708,114.096c14.167,-26.954 32.617,-43.137 47.696,-38.991c7.346,2.021 12.875,8.662 16.475,18.375c0.441,-27.588 13.337,-49.725 29.225,-49.725c16.162,-0 29.262,22.904 29.262,51.162c0,28.259 -13.1,51.163 -29.262,51.163c-10.213,-0 -19.192,-9.159 -24.425,-23.013c0.225,14.838 -1.954,31.925 -6.821,49.625c-13.221,48.063 -41.125,82.296 -62.329,76.467c-16.679,-4.588 -24.188,-32.642 -20.217,-67.788c-26.2,111.567 -17.8,232.242 31.829,345.246c25.767,58.675 57.529,110.654 98.038,154.904c-48.304,-46.504 -87.038,-101.233 -115.292,-163.121Zm174.813,-229.766c0.091,0.796 0.012,0.012 0.008,-0.075c0.025,-0.242 0.029,-0.484 0.112,-0.746c0.163,-0.496 0.163,-1.346 0.263,-2.033c0.129,-1.417 -0.363,-3 -0.6,-4.55c-0.713,-3.171 -1.425,-6.505 -2.421,-9.817c-1.908,-6.642 -5.337,-12.775 -8.083,-19.354c-2.779,-6.584 -5.654,-13.254 -7.504,-20.884c-0.4,-1.954 -0.95,-3.82 -1.138,-5.937l-0.371,-3.117c-0.025,-1.271 -0.054,-2.662 0.096,-3.866c0.475,-5.038 2.017,-9.125 3.663,-12.909c3.412,-7.483 7.679,-13.629 12.125,-19.4c4.37,-5.779 9.187,-11.021 13.587,-15.895l3.083,-3.509c0.946,-1.071 1.813,-2.204 2.105,-2.625c0.012,-0.067 -0.03,0.138 0.1,-0.125l0.354,-0.696c0.246,-0.441 0.483,-1.145 0.737,-1.704l1.525,-4.216c4.059,-12.3 9.309,-27.238 20.571,-37.68c0.771,15.213 1.479,27.734 -0.292,42.384c-0.279,1.858 -0.583,3.783 -1.104,5.8c-0.312,1.07 -0.525,2.041 -0.933,3.196l-0.604,1.708c-0.184,0.542 -0.671,1.492 -1.029,2.2c-1.43,2.579 -2.663,4.2 -3.875,5.821c-1.205,1.604 -2.434,3.021 -3.609,4.395c-4.737,5.484 -9.396,10.301 -13.933,15.075c-4.417,4.788 -8.788,9.542 -11.908,14.251c-1.546,2.312 -2.796,4.662 -3.317,6.483c-0.183,0.491 -0.213,0.842 -0.333,1.292l-0.092,2.05c-0.15,1.345 0.058,2.87 0.092,4.337c0.491,6.004 2.204,12.45 4.4,18.729c2.283,6.283 4.529,12.746 8.145,18.763c1.788,3.008 3.763,6.033 5.55,9.3l2.763,5.241c0.533,0.988 1.146,1.763 1.6,2.971c0.237,0.584 0.408,1.192 0.592,1.796c0.129,0.763 0.304,0.817 0.379,2.483c0.071,2.542 -0.279,4.1 -0.579,5.442c-0.317,1.354 -0.675,2.479 -1.038,3.546c-0.737,2.104 -1.517,3.941 -2.317,5.708c-1.6,3.517 -3.287,6.754 -5.004,9.934c-6.904,12.604 -14.283,24.341 -21.6,36.129l-22.091,34.737c-3.588,5.721 -7.113,11.496 -10.088,17.1c-0.737,1.396 -1.421,2.771 -2.021,4.079l-1.733,4.025c-1.083,2.796 -2.133,5.521 -2.913,8.213c-1.729,5.362 -2.487,10.579 -1.241,15.616c1.166,5.067 4.821,9.763 9.708,13.367c4.767,3.667 10.754,6.667 16.583,8.854c2.971,0.971 5.925,1.771 9.05,2.409c3.146,0.725 6.484,0.983 11.384,2.846c2.391,0.845 5.1,2.595 7.316,4.574c2.1,2.059 3.738,4.255 4.963,6.321c2.458,4.284 3.629,7.684 5.033,11.7c1.321,4.55 1.821,9.538 1.359,14.271c-0.446,4.759 -1.875,9.108 -3.455,12.979c-1.57,3.888 -3.533,7.271 -5.508,10.146c-1.929,2.867 -4.05,5.313 -5.221,6.821c-0.612,0.729 1.871,7.796 4.188,10.15c2.333,2.396 4.916,4.613 7.716,6.608c2.838,1.967 5.959,3.509 9.442,5.067c1.75,0.825 3.508,1.625 5.621,3.162c0.562,0.451 1.117,0.913 1.762,1.684c0.275,0.275 0.709,0.954 1.021,1.45c0.354,0.604 0.779,1.571 1.017,2.558c0.262,1.146 0.308,2.513 0.242,3.163c-0.025,0.412 -0.067,0.825 -0.125,1.229l-0.155,0.854c-0.12,0.621 -0.258,1.104 -0.379,1.479l-0.387,1.171c-0.988,2.725 -1.896,4.329 -2.817,5.975c-0.917,1.6 -1.896,2.958 -2.758,4.304l-4.838,6.684c-0.629,0.891 -0.812,4.433 0.142,5.687l3.096,3.971l6.491,7.966c4.45,5.305 9.042,10.584 13.709,15.892c1.179,1.317 2.241,2.7 3.591,4.121c1.296,1.408 2.775,2.754 4.188,4.358c1.433,1.563 2.696,3.484 3.487,5.634c0.8,2.158 0.905,4.546 0.734,6.737c-0.342,4.446 -1.554,8.209 -2.863,11.479c-1.291,3.304 -2.525,6.292 -3.516,9.342c-2.009,6.042 -2.492,12.625 -1.696,19.746c-4.109,-5.779 -6.309,-13.375 -5.954,-20.971c0.175,-7.542 2.575,-14.717 1.966,-19.663l-0.546,-3.508c-0.15,-1.162 -0.125,-2.496 -0.433,-3.921c-0.237,-1.433 -0.767,-2.908 -1.625,-4.191c-0.842,-1.254 -2.104,-2.425 -3.279,-3.63c-4.754,-4.795 -10.125,-9.087 -15.558,-13.433c-2.734,-2.158 -5.5,-4.329 -8.213,-6.617l-4.071,-3.508l-2.025,-1.821l-0.504,-0.458l-0.746,-0.808c-0.521,-0.563 -1.004,-1.192 -1.441,-1.892c-1.813,-2.725 -2.792,-6.254 -2.8,-9.237c-0.084,-3.03 0.441,-5.646 1.083,-7.955c1.337,-4.604 3.35,-8.158 5.462,-11.237c1.109,-1.492 2.159,-2.925 3.238,-4.146c0.792,-0.887 1.617,-1.796 2.221,-2.338c-1.892,-2.729 -4.334,-5.204 -7.004,-7.333c-2.755,-2.116 -5.692,-4.046 -8.721,-6.004c-3.013,-2.017 -6.234,-3.842 -9.484,-6.529c-0.412,-0.342 -0.829,-0.663 -1.241,-1.059c-0.409,-0.37 -0.809,-0.695 -1.396,-1.449c-1.096,-1.255 -1.975,-2.938 -2.563,-4.65c-1.145,-3.53 -0.904,-6.784 -0.541,-9.338c0.916,-5.092 2.296,-8.671 3.629,-11.871l3.696,-8.396c1.037,-2.508 1.65,-4.829 1.933,-6.95c0.375,-2.125 0.308,-4.137 -0.121,-6.262c-0.533,-2.6 -1.333,-5.871 -2.125,-7.7c-0.371,-1 -0.712,-1.646 -0.933,-2.154c-0.313,-0.346 -0.363,-0.767 -1.188,-1.225c-1.404,-1 -4.891,-2.117 -8.341,-3.4c-3.504,-1.3 -7.046,-2.879 -10.434,-4.592c-3.408,-1.733 -6.62,-3.487 -9.758,-5.5c-3.175,-1.958 -6.342,-4.042 -9.346,-6.483c-5.954,-4.838 -11.854,-10.834 -15.7,-18.721c-3.933,-7.858 -4.946,-17.008 -4.091,-25.159c0.479,-4.095 1.341,-8.029 2.575,-11.737c0.595,-1.825 1.216,-3.7 2.062,-5.613c0.796,-1.845 1.613,-3.583 2.45,-5.258c3.342,-6.679 6.896,-12.779 10.496,-18.846c7.217,-12.075 14.887,-23.608 22.404,-35.158c7.588,-11.458 15.233,-22.921 21.929,-34.363c1.654,-2.845 3.234,-5.7 4.575,-8.429c0.667,-1.358 1.263,-2.687 1.7,-3.833c0.217,-0.562 0.388,-1.079 0.479,-1.404c0.125,-0.329 0.05,-0.496 0.08,0.325Zm111.454,93.308c1.512,-5.375 3.879,-10.491 6.996,-15.162c3.112,-4.663 7.016,-8.892 11.645,-12.259c4.63,-3.312 10.038,-5.875 15.946,-6.212l-17.104,25.496c-2.746,4.087 -5.55,8.2 -8.537,12.354c-3.034,4.158 -6.138,8.329 -10.125,12.646c-1.025,-5.809 -0.275,-11.484 1.179,-16.863Zm-57.463,36.85c3.634,8.784 7.125,16.8 11.979,23.713c4.68,6.987 10.68,12.929 16.896,19.645c6.184,6.655 12.359,14.321 16.496,23.096c4.133,8.755 6.346,18.255 6.179,27.7c-4.962,-8.116 -9.375,-15.733 -14.679,-22.571c-5.192,-6.908 -11.121,-13.008 -17.292,-19.691c-6.108,-6.617 -12.55,-14.275 -16.32,-23.509c-3.788,-9.162 -4.871,-19.087 -3.259,-28.383Zm-6.916,-116.771c0.579,-2.829 1.758,-5.566 3.508,-7.916c1.779,-2.317 4.075,-4.338 7.092,-5.238c-0.271,3.125 -0.705,5.579 -1.075,7.988c-0.4,2.375 -0.809,4.62 -1.288,6.871c-0.467,2.254 -0.987,4.508 -1.596,6.87c-0.654,2.38 -1.296,4.788 -2.354,7.73c-2.354,-2.092 -3.562,-4.888 -4.242,-7.696c-0.629,-2.834 -0.629,-5.775 -0.045,-8.609Zm23.225,57.334c-6.434,-0.717 -11.467,-6.255 -12.967,-12.434c-0.788,-3.096 -0.792,-6.375 0.046,-9.441c0.854,-3 2.608,-6.079 5.558,-7.584c0.154,3.23 0.542,5.617 1.021,8.071c0.454,2.404 0.958,4.65 1.525,6.863c0.571,2.216 1.187,4.4 2,6.704l2.817,7.821Zm-12.196,-93.325c-3.2,-1.392 -6.088,-2.825 -8.725,-3.613c-0.663,-0.171 -1.296,-0.417 -1.929,-0.529l-0.475,-0.112c-0.117,-0.025 -0.3,-0.067 -0.771,-0.226c-0.767,-0.254 -1.534,-0.541 -2.284,-0.862c-1.466,-0.658 -2.575,-1.683 -3.712,-2.633c-0.846,-0.992 -1.863,-2.063 -2.454,-3.092c-2.529,-4.225 -3.413,-8.242 -3.884,-12.104c-0.404,-3.867 -0.337,-7.625 0.096,-11.3c0.971,-7.292 3.142,-14.459 7.4,-20.538c0.825,7.305 1.529,13.971 2.492,20.479c0.517,3.23 1.071,6.371 1.783,9.325c0.709,2.913 1.688,5.688 2.771,7.371c0.242,0.488 0.504,0.621 0.696,1.005c0.217,0.083 0.35,0.358 0.462,0.375c0.05,0.004 0.08,0.041 0.109,0.116c-0.075,0.025 0.158,0.108 0.454,0.2l0.771,0.25c1.041,0.325 2.008,0.725 2.958,1.171c3.783,1.783 6.763,4.067 9.446,6.262c5.287,4.43 9.796,8.463 16.458,11.83c-7.225,2.037 -15.354,-0.45 -21.662,-3.375Zm-162.992,-221.271c-1.621,8.537 -6.892,14.708 -11.771,13.779c-4.875,-0.925 -7.521,-8.6 -5.9,-17.133c1.625,-8.542 6.892,-14.709 11.775,-13.784c4.879,0.93 7.517,8.6 5.896,17.138Zm68.6,689.642c-1.687,-0.188 -7.292,-3.538 -11.187,-10.001l3.412,-0.362c5.079,-0.538 125.571,-13.921 232,-79.908l2.104,-1.305l1.454,-2c2.596,-3.566 59.613,-82.383 91.538,-158.216c4.3,4.558 8.833,8.9 13.575,13.008c-27.025,69.246 -81.4,147.2 -91.213,161.013c-107.633,62 -202.575,78.146 -241.683,77.771Zm613.829,-378.73c0,88.171 -71.733,159.905 -159.904,159.905c-88.171,-0 -159.904,-71.734 -159.904,-159.905c-0,-88.17 71.733,-159.904 159.904,-159.904c88.171,0 159.904,71.734 159.904,159.904Zm-665.721,-423.837c4.996,4.279 15.875,13.054 30.905,25.108c-4.725,3.867 -10.688,9.679 -17.605,18.429c10.113,7.859 20.855,16.305 32.038,25.184c3.721,-4.696 9.383,-11.392 16.662,-18.7c6.263,5.02 12.9,10.35 19.817,15.908c-7.437,7.275 -13.192,14.067 -16.737,18.538c4.9,3.929 9.866,7.924 14.895,11.983c3.367,-4.35 8.975,-11.163 16.438,-18.771c4.304,3.475 8.687,7.012 13.162,10.629c-7.625,7.658 -13.329,14.621 -16.508,18.734c86.571,70.245 187.617,155.941 255.813,218.716c-2.825,4.508 -5.455,9.15 -7.892,13.904c-77.563,-79.745 -354.929,-297.325 -379.717,-316.729c1.954,-4.146 4.942,-8.829 9.238,-13.466c1.833,-1.98 18.254,-19.092 29.491,-9.467Zm1070.46,224.912l-23.908,17.171l-16.863,12.117l-57.541,41.321l52.487,-50.134l-83.867,-146.266l98.138,132.629l12.2,-11.654l-120.367,-189.242l-29.371,21.737l20.596,-29.904l-57.221,-29.816l62.846,21.654l9.371,3.229l3.708,5.754l129.792,201.404Zm-36.846,86.679c-18.096,13.426 -30.787,20.071 -40.8,22.421c46.029,-30.454 53.467,-49.241 52.7,-60.096l20.596,-14.791c4.296,10.433 2.804,26.279 -32.496,52.466Zm82.879,143.051c-5.171,-0.996 -10.471,-1.813 -15.837,-2.267c-7.763,-0.633 -15.642,-0.746 -23.608,0.067c7.099,-3.705 14.745,-6.651 22.599,-9.059c4.975,-1.504 10.009,-2.783 15.184,-3.833c0.754,5.062 1.283,10.075 1.662,15.092Zm39.775,181.516c1.042,0.896 2.088,1.796 3.138,2.7c-6.275,1.492 -12.746,3.729 -18.904,6.429c-7.871,3.5 -15.542,7.8 -22.28,13.7c4.4,-7.825 10.509,-14.866 17.242,-21.216c3.675,-3.413 7.5,-6.625 11.588,-9.646c3.012,2.704 6.096,5.362 9.216,8.033Zm-95.687,-298.137c-7.571,2.766 -15.334,5.02 -23.154,5.862c6.875,-3.712 12.891,-8.529 18.491,-13.617c2.688,-2.47 5.25,-5.049 7.579,-7.691c2.721,3.596 5.359,7.191 7.9,10.816c-3.591,1.763 -7.187,3.28 -10.816,4.63Zm35.675,39.141c-12.754,2.775 -25.604,4.375 -38.238,4.05c11.55,-4.412 22.134,-10.433 31.975,-17.195c2.18,4.241 4.271,8.612 6.263,13.145Zm9.529,25.159c-4.992,0.641 -9.813,1.054 -14.65,1.558c-7.692,0.75 -15.308,1.558 -22.95,2.933c6.533,-4.183 13.454,-7.941 20.329,-11.596c4.171,-2.233 8.408,-4.445 12.396,-6.712c1.7,4.425 3.321,9.033 4.875,13.817Zm-4.504,90.437c5.162,-0.708 10.346,-1.187 15.625,-1.425c-0.171,4.75 -0.4,9.638 -0.663,14.675c-4.945,-1.642 -10.087,-3.058 -15.27,-4.208c-8.096,-1.771 -16.409,-2.975 -24.93,-3.221c8.071,-2.737 16.584,-4.6 25.238,-5.821Zm23.108,108.867c-6.787,0.091 -13.983,0.95 -20.962,2.404c-8.417,1.804 -16.809,4.433 -24.617,8.821c5.912,-6.754 13.342,-12.388 21.237,-17.217c5.671,-3.404 11.509,-6.425 17.813,-8.992c1.721,5.501 3.929,10.455 6.529,14.984Zm-27.208,39.479c4.4,-7.829 10.512,-14.867 17.246,-21.217c4.458,-4.137 9.15,-7.979 14.258,-11.533c3.204,4.475 6.788,8.558 10.613,12.425c-6.567,1.483 -13.367,3.792 -19.838,6.625c-7.871,3.5 -15.538,7.796 -22.279,13.7Zm21.067,41.321c-2.946,2.2 -6.95,1.816 -8.946,-0.85c-1.992,-2.675 -1.225,-6.621 1.72,-8.817c2.942,-2.204 6.946,-1.821 8.942,0.854c1.992,2.667 1.225,6.617 -1.716,8.813Zm8.516,16.45c-2.487,1.437 -5.558,0.775 -6.862,-1.483c-1.3,-2.255 -0.342,-5.246 2.145,-6.684c2.488,-1.437 5.559,-0.771 6.859,1.488c1.304,2.254 0.341,5.241 -2.142,6.679Zm3.508,14.091c-2.574,0.655 -5.141,-0.704 -5.733,-3.037c-0.596,-2.329 1.008,-4.75 3.579,-5.404c2.571,-0.658 5.138,0.704 5.734,3.033c0.591,2.334 -1.009,4.754 -3.58,5.408Zm6.296,8.896c0.359,2.375 -1.479,4.625 -4.104,5.021c-2.625,0.396 -5.042,-1.217 -5.396,-3.596c-0.358,-2.383 1.475,-4.629 4.1,-5.025c2.625,-0.391 5.042,1.217 5.4,3.6Zm5.938,7.121c12.333,-4.896 26.871,-4.008 39.991,0.508c6.101,2.121 12.009,5.1 17.509,9.038c-1.238,5.45 -2.821,10.658 -4.613,15.512c-3.87,-6.241 -9.887,-12.062 -16.75,-16.362c-10.333,-6.483 -23.066,-10.604 -36.137,-8.696Zm-48.379,-75.775c3.2,-2.387 7.55,-1.971 9.721,0.933c2.166,2.9 1.329,7.188 -1.871,9.58c-3.2,2.391 -7.55,1.975 -9.721,-0.929c-2.167,-2.9 -1.329,-7.192 1.871,-9.584Zm-69.567,-287.533c-2.942,1.054 -6.096,-0.254 -7.05,-2.921c-0.954,-2.667 0.654,-5.683 3.592,-6.733c2.941,-1.055 6.1,0.254 7.054,2.921c0.954,2.666 -0.654,5.683 -3.596,6.733Zm11.929,18.592c-3.371,1.587 -7.266,0.4 -8.708,-2.655c-1.446,-3.058 0.116,-6.825 3.487,-8.412c3.367,-1.588 7.271,-0.4 8.713,2.654c1.437,3.058 -0.125,6.821 -3.492,8.413Zm7.854,19.029c-3.746,1.25 -7.7,-0.492 -8.833,-3.892c-1.133,-3.4 0.988,-7.167 4.733,-8.417c3.746,-1.25 7.704,0.496 8.838,3.892c1.133,3.4 -0.988,7.167 -4.738,8.417Zm7.1,20.891c-3.291,1.096 -6.762,-0.433 -7.758,-3.416c-0.996,-2.984 0.862,-6.292 4.154,-7.388c3.288,-1.096 6.763,0.434 7.758,3.417c0.996,2.983 -0.862,6.292 -4.154,7.387Zm4.029,22.388c-3.412,0.508 -6.554,-1.588 -7.012,-4.684c-0.467,-3.095 1.933,-6.016 5.342,-6.525c3.412,-0.508 6.554,1.588 7.016,4.684c0.459,3.096 -1.933,6.016 -5.346,6.525Zm4.413,22.704c-3.092,0.462 -5.933,-1.437 -6.35,-4.238c-0.417,-2.8 1.746,-5.445 4.838,-5.904c3.087,-0.462 5.929,1.438 6.345,4.238c0.421,2.804 -1.746,5.446 -4.833,5.904Zm3.417,22.883c-3.088,0.459 -5.934,-1.437 -6.346,-4.241c-0.421,-2.8 1.746,-5.442 4.833,-5.905c3.088,-0.462 5.933,1.438 6.35,4.242c0.417,2.8 -1.75,5.442 -4.837,5.904Zm1.841,25.246c-3.091,0.463 -5.929,-1.437 -6.35,-4.237c-0.412,-2.805 1.75,-5.446 4.838,-5.905c3.092,-0.462 5.929,1.438 6.35,4.238c0.412,2.8 -1.75,5.446 -4.838,5.904Zm-0.041,27.2c-3.3,0.492 -6.338,-1.537 -6.784,-4.529c-0.441,-2.992 1.867,-5.817 5.167,-6.308c3.3,-0.492 6.337,1.537 6.783,4.529c0.446,2.991 -1.866,5.817 -5.166,6.308Zm-2.467,18.025c3.558,-0.529 6.825,1.654 7.304,4.879c0.479,3.225 -2.008,6.267 -5.566,6.796c-3.555,0.529 -6.825,-1.654 -7.305,-4.879c-0.479,-3.225 2.013,-6.267 5.567,-6.796Zm2.287,45.713c-4.333,0.641 -8.316,-2.021 -8.904,-5.946c-0.579,-3.929 2.454,-7.634 6.784,-8.279c4.329,-0.646 8.312,2.016 8.9,5.941c0.583,3.93 -2.45,7.634 -6.78,8.284Zm17.196,20.966c2.4,3.217 1.471,7.971 -2.07,10.621c-3.551,2.646 -8.371,2.188 -10.771,-1.029c-2.405,-3.217 -1.48,-7.971 2.07,-10.621c3.542,-2.65 8.371,-2.187 10.771,1.029Zm14.205,-58.912c5.679,-2.658 11.483,-4.946 17.658,-6.784c0.262,5.496 0.904,10.55 1.879,15.234c-5.558,-0.35 -11.383,-0.25 -17.092,0.258c-8.254,0.788 -16.566,2.342 -24.52,5.688c6.325,-5.905 14.025,-10.55 22.075,-14.396Zm2.108,-25.925c5.217,-1.525 10.487,-2.734 15.971,-3.592c-0.188,4.004 -0.363,8.075 -0.517,12.325c-0.029,0.859 0.004,1.638 -0.013,2.475c-4.679,-1.033 -9.57,-1.792 -14.45,-2.217c-7.754,-0.625 -15.691,-0.6 -23.6,1.213c6.713,-4.604 14.575,-7.779 22.609,-10.204Zm16.421,-12.733c-4.567,-1.455 -9.367,-2.65 -14.184,-3.517c-7.67,-1.329 -15.575,-2.029 -23.612,-0.938c7.104,-3.979 15.221,-6.425 23.441,-8.108c4.984,-0.979 9.992,-1.671 15.146,-2.054c-0.025,0.454 -0.05,0.887 -0.075,1.341c-0.237,4.342 -0.483,8.771 -0.716,13.276Zm87.562,191.229c-5.15,-4.9 -12.096,-8.938 -19.462,-11.442c-11.538,-3.925 -24.888,-5.008 -37.167,-0.142c10.875,-7.604 25.229,-10.087 39.033,-8.708c5.896,0.604 11.8,1.963 17.567,4.154c0.492,5.433 0.458,10.842 0.029,16.138Zm-2.712,-30.838c-7.58,-2.304 -16.305,-3.296 -24.867,-2.875c-10.313,0.521 -20.796,2.992 -30.454,8.1c7.871,-7.558 17.862,-13.296 28.696,-16.975c6.437,-2.125 13.075,-3.683 20.033,-4.379c2.912,5.258 5.058,10.662 6.592,16.129Zm-16.238,-29.775c-7.067,-0.954 -15.391,-0.183 -23.167,1.996c-8.583,2.412 -16.95,6.554 -24.191,12.708c4.929,-8.104 11.992,-15.266 20.312,-20.883c4.38,-2.887 8.984,-5.45 13.979,-7.5c4.421,4.154 8.805,8.646 13.067,13.679Zm-66.267,-183.083c-4.491,-0.525 -9.079,-0.858 -13.654,-0.996c-8.287,-0.221 -16.675,0.158 -25.091,1.513c7.412,-4.205 15.429,-7.625 23.7,-10.455c4.883,-1.641 9.833,-3.071 14.916,-4.287c0.154,4.675 0.184,9.408 0.129,14.225Zm-7.837,-65.213c1.392,4.942 2.537,9.742 3.512,14.467c-13.12,-1.121 -26.12,-2.133 -39.333,-2.388c11.684,-4.562 23.746,-8.516 35.75,-12.316c0.021,0.083 0.05,0.158 0.071,0.237Zm-24.575,-59.608c-0.363,0.154 -0.729,0.321 -1.096,0.475c-3.879,1.596 -7.746,2.896 -11.629,4.029c-7.758,2.213 -15.654,3.909 -23.517,4.183c7.121,-3.208 13.471,-7.579 19.417,-12.25c2.958,-2.349 5.796,-4.812 8.379,-7.37c0.371,-0.367 0.733,-0.75 1.096,-1.129c2.55,3.941 5,7.954 7.35,12.062Zm-75.367,382.237c-3.325,-1.683 -7.3,-1.487 -10.45,0.534c-0.816,0.525 -18.237,11.292 -36.996,-2.579c37.196,-30.13 32.167,-44.325 30.08,-50.146l-1.946,-5.488c-1.488,-4.225 -3.513,-9.97 -5.679,-16.012l-2.092,-5.825l-6.183,0.262c-2.659,0.113 -4.788,-0.396 -6.463,-1.391c7.283,-11.975 4.817,-18.867 3.508,-22.513c-0.691,-1.929 -1.391,-4.012 -2.129,-6.204c-1.733,-5.162 -3.695,-10.917 -6.25,-16.942c37.292,-30.85 38.367,-48.916 34.084,-60.841c-9.313,-25.963 -18.109,-44.138 -27.425,-63.388c-5.567,-11.5 -11.317,-23.396 -17.613,-37.804c7.683,-31.042 12.629,-62.825 14.717,-94.933c4.116,1.391 8.308,2.283 12.666,2.591c22.767,34.067 31.717,55.942 41.713,100.296c8.421,37.367 6.983,66.892 5,107.759c-0.479,9.837 -0.988,20.274 -1.392,31.57c-1.662,46.1 20.429,65.305 43.809,85.634c2.65,2.304 5.358,4.658 8.079,7.096c0.883,0.791 19.354,17.649 21.242,40.725c-22.255,-0.688 -38.267,8.675 -49.438,28.337l-40.842,-20.738Zm27.359,111.292c-3.734,-1.291 -7.634,-2.75 -11.671,-4.758c-1.029,-0.55 -2.038,-1.029 -3.096,-1.654c-1.079,-0.667 -2.125,-1.388 -3.183,-2.105c-1.1,-0.895 -2.196,-1.85 -3.267,-2.812c-1.012,-1.133 -1.992,-2.362 -2.938,-3.592c-3.458,-5.087 -4.754,-10.429 -5.587,-15.058c-0.675,-4.662 -0.808,-8.804 -1.008,-12.729c-0.146,-7.663 -0.771,-14.329 -2.613,-17.071c-0.329,-0.833 -1.017,-1.325 -1.554,-2.058c-0.946,-0.438 -1.5,-1.263 -2.838,-1.763c-2.454,-1.129 -5.933,-2.121 -9.545,-3.021c-7.321,-1.816 -15.513,-3.575 -23.317,-6.991c-3.896,-1.73 -7.688,-3.917 -10.987,-6.654c-3.296,-2.788 -5.971,-6.192 -7.692,-9.871c3.504,2.162 6.925,3.771 10.487,4.791c3.625,0.9 7.171,1.525 10.846,1.8c7.346,0.575 14.796,0.3 22.958,0.6c4.121,0.234 8.409,0.48 13.363,1.888c2.45,0.575 5.171,2 7.683,3.354c2.45,1.8 4.888,3.704 6.692,6.204c3.754,4.838 5.438,10.367 6.325,15.025c0.796,4.692 1.017,9.029 1.208,12.979c0.15,7.809 0.642,14.725 2.313,17.696c0.233,0.329 0.396,0.692 0.591,1.092c0.367,0.362 0.7,0.746 1.038,1.167c0.529,0.433 1.067,0.858 1.571,1.337c0.562,0.471 1.271,0.942 1.9,1.421c2.754,1.875 5.916,3.804 9.291,5.779c6.663,3.958 13.851,8.321 20.155,13.938c6.25,5.608 11.683,12.879 13.504,20.87c-11.734,-11.412 -25.729,-14.537 -40.629,-19.804Zm-78,-22.171c-3.288,-0.604 -6.459,-0.683 -9.688,-0.291c-1.616,0.237 -3.237,0.47 -4.875,0.9l-6.129,1.341c-8.358,1.659 -17.087,2.613 -25.958,2.117c-8.817,-0.546 -17.925,-2.454 -25.659,-7.329l24.542,-5.858c7.862,-1.901 15.696,-3.855 23.804,-5.438l6.221,-1.125c2.487,-0.362 5.033,-0.604 7.617,-0.533c5.158,0.146 10.433,1.466 14.954,3.945c9.187,4.967 14.6,13.805 15.966,22.684c-7.345,-5.329 -14.175,-9.292 -20.795,-10.413Zm61.433,65.38c6.158,-1.225 12.383,-1.788 18.617,-1.763c6.233,0.025 12.487,0.654 18.666,2.025c6.142,1.421 12.35,3.508 17.809,7.367c-6.509,1.3 -12.488,2 -18.538,2.533c-6.021,0.496 -12,0.742 -17.996,0.696c-6,-0.038 -12.008,-0.346 -18.066,-0.975c-6.084,-0.667 -12.113,-1.608 -18.517,-3.309c5.7,-3.479 11.9,-5.279 18.025,-6.574Zm-39.558,-7.35c-4.338,0.249 -8.754,0.175 -13.371,-0.575c-4.567,-0.738 -9.571,-2.171 -14.15,-5.126c-1.142,-0.704 -2.246,-1.504 -3.246,-2.362l-1.883,-1.679c-0.709,-0.584 -2.105,-1.454 -3.725,-2.2c-3.288,-1.608 -7.409,-3.288 -11.375,-5.746c-3.984,-2.392 -7.863,-5.725 -10.442,-9.858c-2.592,-4.134 -3.713,-8.842 -3.383,-13.234c2.837,3.429 5.737,6.138 8.9,7.913c3.129,1.833 6.425,2.829 9.958,3.737c3.562,0.88 7.367,1.496 11.779,2.767c2.213,0.717 4.65,1.425 7.354,3.15c0.667,0.404 1.367,0.929 2.046,1.463l0.942,0.65c0.625,0.391 1.183,0.812 1.817,1.154c4.741,2.821 12.208,4.329 19.9,6.262c7.762,1.875 15.879,3.879 24.095,7.621c-8.233,3.729 -16.575,5.454 -25.216,6.063Zm206.925,-56.705c0.875,-13.733 -8.109,-39.529 -83.688,-76.845c10.833,1.191 24.908,5.445 43.558,14.091c58.842,27.292 61.292,47.283 52.705,69.138l-12.575,-6.384Zm95.458,253.121l-46.292,-223.725c-0.65,-3.133 -2.687,-5.8 -5.541,-7.246l-12.288,-6.241c10.059,-25.384 6.813,-46.021 -11.342,-64.679c7.551,-14.48 14.546,-34.509 15.909,-56.167c0.021,-0.346 0.05,-0.692 0.071,-1.042c1.237,-22.796 -3.842,-47.296 -21.159,-68.941c-10.754,-13.446 -22.275,-23.321 -32.433,-32.034c-21.079,-18.066 -36.313,-31.125 -35.05,-66.221c0.442,-12.291 1.062,-23.495 1.667,-34.325c2.241,-40.379 4.016,-72.27 -6.967,-111.275c-12.817,-45.541 -30.679,-74.958 -55.037,-105.87c12.654,-15.592 19.512,-34.355 8.737,-55.721l11.629,-8.354c5.467,-3.921 6.892,-11.438 3.246,-17.092l-142.375,-220.921c-1.533,-2.375 -3.821,-4.175 -6.492,-5.096l-121.125,-41.742c-98.95,-108.308 -241.262,-176.362 -399.175,-176.362c-164.008,-0 -315.9,72.367 -419.154,199.096c-17.337,-9.517 -39.675,-3.654 -57.883,16.012c-15.525,16.767 -24.563,40.296 -15.017,56.363c-110.083,161.787 -128.417,369.067 -46.567,548.379c30.155,66.042 71.705,124.325 123.671,173.625c-3.387,10.662 -2.054,22.45 4.134,33.483c7.316,13.046 19.937,22.329 31.337,23.43c7.954,22.737 9.804,28.204 10.792,31.125c1.183,3.487 1.179,3.487 8.754,24.604c4.3,11.958 16.629,25.291 65.442,25.291c6.158,0 12.912,-0.22 20.295,-0.671c1.238,3.471 2.517,6.759 3.709,9.796c1,2.542 1.95,4.959 2.766,7.238c1.338,3.717 3.909,10.825 17.9,15.433c-0.479,1.671 -1.4,3.292 -3.079,4.384l-5.254,3.412l1.771,6.013c2.771,9.441 5.017,15.233 6.504,19.058c0.4,1.037 0.742,1.908 1.013,2.662c1.854,5.171 6.079,16.892 40.4,19.2c-118.988,91.446 -95.917,188.246 -95.917,188.246c13.325,-58.208 51.2,-85.562 51.2,-85.562c-16.833,44.187 13.325,65.929 13.325,65.929c-5.613,35.766 8.417,66.629 8.417,66.629c4.908,-23.146 26.65,-63.825 26.65,-63.825c-2.805,-66.629 26.65,-76.446 26.65,-76.446c-21.038,44.888 -6.313,88.371 -6.313,88.371c-25.95,44.183 -24.546,94.679 -24.546,94.679c43.484,-82.058 66.629,-78.55 66.629,-78.55c11.221,-26.65 24.546,-37.171 24.546,-37.171c-26.65,65.925 -19.637,87.667 -19.637,87.667c65.225,-146.579 91.175,-145.879 91.175,-145.879c-123.438,244.067 -99.592,302.979 -99.592,302.979c137.463,-231.442 366.8,-313.496 366.8,-313.496c0.496,-0.579 1.017,-1.179 1.521,-1.767c105.671,-90.45 145.1,-109.354 184.454,-123.524c108.809,-34.092 200.408,-37.309 272.404,-9.38c77.534,30.079 155.196,133.592 155.971,134.638c2.033,2.733 5.2,4.242 8.446,4.242c1.45,-0 2.913,-0.305 4.3,-0.925c4.5,-2.021 6.996,-6.896 6,-11.734Z" style="fill-rule:nonzero;"/><path d="M817.203,441.142c17.296,7.566 50.496,-42.996 50.496,-92.575c-0,-49.58 -25.213,-93.821 -42.084,-89.771c-17.533,4.208 -7.079,39.533 -9.116,89.071c-2.105,51.195 -21.742,83.458 0.704,93.275Z" style="fill-rule:nonzero;"/><path d="M849.032,249.621c4.583,-3.1 2.312,-14.454 -5.063,-25.363c-7.379,-10.908 -17.075,-17.237 -21.658,-14.141c-4.579,3.1 -2.308,14.454 5.067,25.362c7.379,10.908 17.075,17.242 21.654,14.142Z" style="fill-rule:nonzero;"/></g></g></svg>